<?xml version="1.0" encoding="UTF-8"?>
<svg id="Layer_1" data-name="Layer 1" xmlns="http://www.w3.org/2000/svg" viewBox="0 0 40 40">
  <defs>
    <style>
      .cls-1 {
        fill: #fff;
      }

      .cls-2 {
        fill: #4aa218;
      }
    </style>
  </defs>
  <rect class="cls-1" x="1.44145" y="1.42413" width="37.15178" height="37.15174" rx="7.16429" ry="7.16429"/>
  <path d="M31.42894.09239H8.60574C3.92103.09239.10971,3.90371.10971,8.58842v22.82316c0,4.68471,3.81132,8.49603,8.49603,8.49603h22.8232c4.68471,0,8.49603-3.81132,8.49603-8.49603V8.58842C39.92497,3.90371,36.11366.09239,31.42894.09239ZM38.59323,31.41158c0,3.95041-3.21388,7.16429-7.16429,7.16429H8.60574c-3.95041,0-7.16429-3.21388-7.16429-7.16429V8.58842c0-3.95041,3.21388-7.16429,7.16429-7.16429h22.8232c3.95041,0,7.16429,3.21388,7.16429,7.16429v22.82316Z"/>
  <path class="cls-2" d="M27.8585,9.91l-10.9865,10.98651c-.20798.20797-.54517.20797-.75314,0l-3.94269-3.94269c-.20797-.20797-.54516-.20797-.75314,0l-3.9539,3.9539c-.20797.20798-.20797.54517,0,.75314l8.27316,8.27316c.41595.41595,1.09033.41595,1.50627,0l15.31698-15.31698c.20797-.20798.20797-.54517,0-.75314l-3.95391-3.9539c-.20797-.20798-.54516-.20798-.75314,0Z"/>
</svg>