<?xml version="1.0" encoding="UTF-8"?>
<svg xmlns="http://www.w3.org/2000/svg" viewBox="0 0 34.305 34">
  <defs>
    <style>
      .cls-1 {
        fill: #fff;
      }

      .cls-2 {
        mix-blend-mode: overlay;
        opacity: .5;
      }

      .cls-2, .cls-3 {
        isolation: isolate;
      }

      .cls-4 {
        fill: #f27205;
      }
    </style>
  </defs>
  <g class="cls-3">
    <g id="Layer_1" data-name="Layer 1">
      <g id="Group_722" data-name="Group 722">
        <circle id="Ellipse_2" data-name="Ellipse 2" class="cls-4" cx="17.305" cy="17" r="17"/>
        <path id="Path_13" data-name="Path 13" class="cls-2" d="M16.82,28.64097c6.27154.12848,11.45978-4.85144,11.58826-11.12298.0649-3.16734-1.196-6.21785-3.47826-8.41502.046.045.093.088.138.134L16.068.23697C7.40833.72766.495,7.63755,0,16.29697l9,9c2.07401,2.08715,4.87817,3.28627,7.82,3.344ZM21.886,6.98897c.108.051.215.1.321.16-.106-.055-.213-.108-.32-.159l-.001-.001ZM16.866,5.89697h.385c.58041.01072,1.15913.06622,1.731.166h0c-.57188-.09977-1.15059-.15527-1.731-.166h-.385ZM14.61501,6.15297c.225-.049.452-.09.682-.125h0c-.23.035-.457.076-.682.125ZM5.663,17.09997h0v.012-.012ZM5.829,19.21697c-.09981-.5722-.1553-1.15126-.166-1.732,0-.09667,0-.193,0-.289,0,.096,0,.19233,0,.289.0107.58074.0662,1.1598.166,1.732Z"/>
        <path id="Path_14" data-name="Path 14" class="cls-1" d="M28.40801,17.05301c-.11932-6.28056-5.30745-11.27522-11.588-11.1559-6.28055.11932-11.27522,5.30744-11.1559,11.588.11613,6.11249,5.04341,11.03977,11.1559,11.1559,6.30247.0974,11.4906-4.93281,11.588-11.23528.00182-.11757.00182-.23515,0-.35272ZM7.36401,17.43601h-1.355v-.34h1.355v.34ZM7.564,22.92801l-.16701-.289,1.175-.677.16701.289-1.175.677ZM8.576,12.57601l-1.173-.679.16701-.289,1.173.679-.16701.289ZM16.876,6.24201h.334v1.355h-.334v-1.355ZM11.66401,26.90201l-.289-.167.679-1.173.289.167-.679,1.173ZM12.064,8.97101l-.677-1.174.289-.167.677,1.174-.289.167ZM17.204,28.29901h-.34v-1.355h.334l.006,1.355ZM21.49801,17.80701h-4.06599v.4c0,.05523-.04477.1-.10001.1h-.56599c-.05522,0-.10001-.04476-.10001-.09999h0v-.40001h-.354c-.07787,0-.14101-.06312-.14101-.14099h0v-.78801c0-.07787.06313-.141.14101-.141h.354v-7.733c0-.05523.04477-.1.10001-.1h.56599c.05522,0,.10001.04476.10001.09999h0v7.732h4.06599c.07787,0,.14101.06312.14101.14099h0v.78801c.00121.07787-.06094.14196-.13881.14317-.00307.00005-.00613,0-.0092-.00016l.007-.001ZM22.409,26.90701l-.685-1.17101.289-.167.67799,1.174-.282.164ZM22.03001,8.97501l-.289-.167.67799-1.174.289.167-.67799,1.174ZM26.51,22.93201l-1.174-.678.16701-.289,1.174.678-.16701.289ZM25.51,12.57902l-.16701-.289,1.174-.678.16701.289-1.174.678ZM28.075,17.44002h-1.355v-.334h1.34399l.011.334Z"/>
      </g>
    </g>
  </g>
</svg>