<?xml version="1.0" encoding="UTF-8"?>
<svg id="Layer_1" data-name="Layer 1" xmlns="http://www.w3.org/2000/svg" xmlns:xlink="http://www.w3.org/1999/xlink" viewBox="0 0 31 31">
  <defs>
    <style>
      .cls-1 {
        fill: #fff;
      }

      .cls-2 {
        fill: none;
      }

      .cls-3 {
        fill: #fffc80;
      }

      .cls-4 {
        clip-path: url(#clippath);
      }
    </style>
    <clipPath id="clippath">
      <rect class="cls-2" width="31" height="31"/>
    </clipPath>
  </defs>
  <g id="Group_713" data-name="Group 713">
    <g class="cls-4">
      <g id="Group_90" data-name="Group 90">
        <path id="Path_491" data-name="Path 491" class="cls-1" d="M15.673,1.366c-7.91645.00073-14.3334,6.41888-14.33267,14.33533.00035,3.79642,1.50676,7.43764,4.18867,10.12467l.017.017c5.60238,5.59239,14.67753,5.5843,20.26991-.01808,5.59239-5.60238,5.5843-14.67753-.01808-20.26992-2.68695-2.68217-6.32829-4.18872-10.12484-4.189"/>
        <path id="Path_492" data-name="Path 492" d="M13.668,13.69801c.37486-.37453.84813-.63525,1.36501-.752V3.88001c-.00078-.3391.27348-.61463.61259-.61541.3391-.00078.61462.27349.6154.61259v9.06782c1.50839.34074,2.45496,1.83976,2.11421,3.34815-.01649.07303-.03592.14537-.05821.21685l5.31599,3.07c.29558.16395.40227.53647.23831.83204-.16394.29557-.53647.40227-.83203.23832-.00548-.00304-.01091-.00616-.01628-.00936l-5.31799-3.072c-.02699.028-.05299.057-.08.083-1.09258,1.08828-2.85942,1.08828-3.952,0h-.006c-1.08961-1.0928-1.08961-2.8612,0-3.954"/>
        <path id="Path_493" data-name="Path 493" class="cls-3" d="M17.42101,15.59305c0,.97423-.78978,1.76399-1.76401,1.76399s-1.76399-.78978-1.76399-1.76401.78976-1.76399,1.76399-1.76399,1.76401.78976,1.76401,1.76399v.00002"/>
        <path id="Path_494" data-name="Path 494" d="M26.55,4.69999c-6.0168-6.01604-15.77134-6.01542-21.78737.00138-6.01604,6.0168-6.01542,15.77134.00138,21.78737,6.0168,6.01604,15.77134,6.01542,21.78737-.00138,2.88886-2.88922,4.51172-6.80766,4.51163-10.89337.00519-4.08718-1.619-8.00785-4.513-10.894M25.682,25.61899c-5.53709,5.54052-14.51727,5.5433-20.05779.00621C.08369,20.0881.08091,11.10793,5.618,5.56741,11.15509.02689,20.13527.02411,25.67579,5.5612c2.66192,2.66027,4.15742,6.26943,4.15721,10.03279.0053,3.76086-1.48859,7.36874-4.151,10.025"/>
      </g>
    </g>
  </g>
</svg>